<?xml version="1.0" encoding="UTF-8" standalone="no"?>
<!-- Created with Inkscape (http://www.inkscape.org/) -->

<svg
   width="300"
   height="300"
   viewBox="0 0 300 300"
   version="1.1"
   id="svg1"
   xml:space="preserve"
   xmlns:xlink="http://www.w3.org/1999/xlink"
   xmlns="http://www.w3.org/2000/svg"
   xmlns:svg="http://www.w3.org/2000/svg"><defs
     id="defs1"><linearGradient
       id="linearGradient2"><stop
         style="stop-color:#5c5c5c;stop-opacity:1;"
         offset="0"
         id="stop2" /><stop
         style="stop-color:#6c6c6c;stop-opacity:1;"
         offset="1"
         id="stop3" /></linearGradient><rect
       x="39.402649"
       y="46.30827"
       width="220.16737"
       height="103.58428"
       id="rect2" /><radialGradient
       xlink:href="#linearGradient2"
       id="radialGradient3"
       cx="154.62131"
       cy="106.99234"
       fx="154.62131"
       fy="106.99234"
       r="72.708405"
       gradientTransform="matrix(1.1495288,0,0,0.54674741,-28.16123,44.438609)"
       gradientUnits="userSpaceOnUse" /></defs><rect
     style="fill:#ffffff;stroke:#808080;stroke-width:0;stroke-linecap:round;stroke-linejoin:round;stroke-opacity:1;paint-order:fill markers stroke"
     id="rect1"
     width="299.63098"
     height="299.63098"
     x="-0.0058351294"
     y="0.0092330156" /><g
     id="layer1"
     style="stroke:#8e8e8e;stroke-opacity:1"
     transform="translate(0.51913779,-1.4613681)"><path
       id="text8"
       style="font-style:normal;font-variant:normal;font-weight:normal;font-stretch:normal;font-size:22.4226px;font-family:sans-serif;-inkscape-font-specification:'sans-serif, Normal';font-variant-ligatures:normal;font-variant-caps:normal;font-variant-numeric:normal;font-variant-east-asian:normal;letter-spacing:-0.192777px;writing-mode:lr-tb;direction:ltr;fill:#6c6c6c;fill-opacity:1;stroke:#6c6c6c;stroke-width:0.330568;stroke-linecap:round;stroke-linejoin:round;stroke-dasharray:none;stroke-opacity:1;paint-order:fill markers stroke"
       d="m 105.78964,159.62769 c -0.42905,0 -1.27009,0.0277 -2.52148,0.084 -1.23948,0.0562 -2.24486,0.24376 -3.01953,0.56249 -0.762761,0.29999 -1.293852,0.88167 -1.591803,1.74414 -0.286032,0.86248 -0.429686,2.07077 -0.429686,3.62695 0,1.83744 0.226802,3.20746 0.679688,4.10743 0.46481,0.88122 1.256651,1.32227 2.376951,1.32227 l 5.97265,0.19531 h 0.58985 c 0.6555,0 1.09583,0.15118 1.32227,0.45117 0.23835,0.29999 0.35742,0.70276 0.35742,1.20899 0,0.56248 -0.10208,0.97384 -0.30469,1.23632 -0.2026,0.26249 -0.63728,0.39453 -1.30469,0.39453 l -2.43164,0.11328 -1.71484,-0.0293 c -0.58398,0 -1.04325,-0.0937 -1.37696,-0.28124 -0.32178,-0.20624 -0.48241,-0.69222 -0.48241,-1.46094 l -0.0176,-0.31055 h -3.576174 v 1.125 c 0,1.98743 0.30429,3.30862 0.912113,3.96485 0.60781,0.65622 1.554641,0.98438 2.841791,0.98438 l 2.43164,0.0859 4.64844,-0.19726 c 1.44208,0 2.47206,-0.41332 3.0918,-1.23829 0.63165,-0.82497 0.94726,-2.34227 0.94726,-4.55468 0,-2.28742 -0.35152,-3.80667 -1.05469,-4.55665 -0.69125,-0.76871 -1.80437,-1.15429 -3.34179,-1.15429 l -2.39649,-0.0273 -2.43164,-0.0566 h -0.375 c -0.5244,0 -0.94208,-0.10235 -1.25195,-0.3086 -0.29795,-0.22499 -0.44531,-0.68518 -0.44531,-1.37891 0,-0.50623 0.12471,-0.86212 0.375,-1.06835 0.26219,-0.225 0.5778,-0.33789 0.94726,-0.33789 l 2.77148,-0.14063 1.75196,0.0293 c 0.44097,0 0.77921,0.13008 1.01758,0.39257 0.25028,0.2625 0.37695,0.72269 0.37695,1.37891 h 3.55664 c 0,-0.95621 -0.0359,-1.70627 -0.10742,-2.25 -0.0715,-0.54373 -0.23781,-1.15316 -0.5,-1.82813 -0.25028,-0.67497 -0.68495,-1.13516 -1.30469,-1.3789 -0.61974,-0.26249 -1.43619,-0.39258 -2.44922,-0.39258 z m 78.8457,0 -2.57422,0.084 c -2.32402,0 -3.79627,0.59027 -4.41601,1.77148 -0.61974,1.16245 -0.92969,3.64703 -0.92969,7.45312 l 0.0352,3.45899 c 0,2.19367 0.37611,3.78754 1.12695,4.78125 0.75084,0.97496 1.81673,1.46289 3.19922,1.46289 l 2.46679,0.14063 1.14454,-0.0274 2.73632,-0.0859 c 2.51471,0 4.08144,-0.65631 4.70118,-1.96875 0.61973,-1.3312 0.92968,-3.94586 0.92968,-7.84571 v -0.90039 c 0,-3.31863 -0.3931,-5.53051 -1.17968,-6.63672 -0.77468,-1.1062 -2.22234,-1.66015 -4.34375,-1.66015 z m 41.97071,0 -2.57422,0.084 c -2.32402,0 -3.79433,0.59027 -4.41407,1.77148 -0.61974,1.16245 -0.92969,3.64703 -0.92969,7.45312 l 0.0352,3.45899 c 0,2.19367 0.37417,3.78754 1.125,4.78125 0.75084,0.97496 1.81868,1.46289 3.20117,1.46289 l 2.4668,0.14063 1.14453,-0.0274 2.73438,-0.0859 c 2.51471,0 4.08143,-0.65631 4.70117,-1.96875 0.61974,-1.3312 0.92969,-3.94586 0.92969,-7.84571 v -0.90039 c 0,-3.31863 -0.3931,-5.53051 -1.17969,-6.63672 -0.77467,-1.1062 -2.22234,-1.66015 -4.34375,-1.66015 z m -156.316409,0.0273 -3.396484,0.14061 c -1.763871,0 -2.931841,0.72234 -3.503907,2.16602 -0.572066,1.42495 -0.859375,3.67513 -0.859375,6.75001 l 0.107422,3.93749 c 0,2.08117 0.340203,3.61762 1.019531,4.61133 0.691247,0.97496 2.235333,1.4629 4.630859,1.4629 l 2.251954,0.0566 2.771484,-0.084 c 1.775788,0 2.960738,-0.42191 3.556641,-1.26563 0.60782,-0.86248 0.912109,-2.58838 0.912109,-5.17578 l -0.01758,-0.81446 h -3.558594 c 0,1.1812 -0.154974,1.93127 -0.464844,2.25 -0.309869,0.31873 -0.827686,0.47656 -1.554687,0.47656 l -1.859375,0.0293 -1.412109,-0.0566 c -1.239477,0 -2.00303,-0.309 -2.289063,-0.92773 -0.286033,-0.61873 -0.427734,-1.95907 -0.427734,-4.02148 0,-2.00618 0.119061,-3.32933 0.357422,-3.96681 0.250278,-0.63747 0.923071,-0.95507 2.019531,-0.95507 l 1.841797,-0.0293 h 1 l 1.019531,0.0293 c 0.583984,0 1.007334,0.14923 1.269531,0.44921 0.274115,0.28125 0.41211,0.85433 0.41211,1.71681 h 3.521484 c 0,-1.93119 -0.196549,-3.45044 -0.589844,-4.55665 -0.393295,-1.12496 -1.049107,-1.76211 -1.966797,-1.91211 -0.917689,-0.15 -1.698222,-0.23516 -2.341797,-0.2539 -0.643573,-0.0375 -1.460021,-0.0566 -2.449218,-0.0566 z M 10.41464,159.8249 v 4.69532 h 5.328126 v 14.0625 h 3.628906 v -14.0625 h 5.308594 v -4.69532 z m 16.150391,0 v 18.75782 h 3.628907 v -4.80859 h 6.060547 c 0.84618,0 1.316765,0.27072 1.412109,0.81445 0.107263,0.54373 0.162109,1.2766 0.162109,2.19531 v 1.79883 h 3.681641 v -3.59961 c 0,-1.23746 -0.196549,-2.10042 -0.589844,-2.58789 -0.393295,-0.50623 -1.007534,-0.84298 -1.841797,-1.01173 0.762755,-0.39372 1.263592,-0.69414 1.501953,-0.90038 0.238361,-0.22499 0.448183,-0.55315 0.626954,-0.98438 0.17877,-0.44998 0.297831,-0.97423 0.357421,-1.57421 0.05959,-0.59998 0.08789,-1.3223 0.08789,-2.16602 0,-2.21241 -0.309949,-3.74886 -0.929688,-4.61132 -0.60782,-0.88123 -1.626475,-1.32228 -3.05664,-1.32228 z m 53.884769,0 v 18.75782 h 3.628902 v -7.14258 h 1.859374 l 5.345707,7.14258 h 5.328127 l -7.580081,-9.47656 6.828127,-9.28126 h -5.005858 l -4.916022,7.0586 h -1.859374 v -7.0586 z m 49.78125,0 -6.65039,18.75782 h 4.04101 l 1.17969,-3.40235 h 7.70508 l 1.125,3.40235 h 4.00586 l -6.50781,-18.75782 z m 30.5664,0 v 4.69532 h 5.32813 v 14.0625 h 3.62891 v -14.0625 h 5.30859 v -4.69532 z m 34.94531,0 v 18.75782 h 3.41602 v -14.28711 l 5.20117,14.28711 h 2.91406 l 5.25587,-14.28711 v 14.28711 h 3.43359 V 159.8249 h -5.74023 l -4.32617,12.4297 -4.37892,-12.4297 z m 40.90039,0 v 4.69532 h 5.32813 v 14.0625 h 3.62891 v -14.0625 h 5.30859 v -4.69532 z m 16.1504,0 v 18.75782 h 3.6289 V 159.8249 Z m 5.49414,0 6.29297,18.75782 h 4.63085 l 6.65039,-18.75782 h -4.04101 l -4.87891,14.14648 -4.68554,-14.14648 z m 19.45898,0 v 18.75782 h 13.30078 v -4.24609 h -9.67188 v -3.31836 h 9.02735 v -3.7129 h -9.02735 v -3.20703 h 9.67188 v -4.27344 z m -233.279295,0.0274 v 11.5039 c 0,2.28742 0.257056,3.9645 0.769531,5.03321 0.512476,1.06871 1.185269,1.73361 2.019532,1.99609 0.834263,0.26249 2.038146,0.39454 3.611328,0.39454 l 2.966796,0.0273 c 2.026068,0 3.52292,-0.45824 4.488281,-1.37695 0.97728,-0.93747 1.464845,-2.86809 1.464845,-5.79297 v -1.09766 -10.6875 h -3.646485 v 9.92774 0.70312 c 0,1.4812 -0.143654,2.46565 -0.429687,2.95313 -0.274116,0.48747 -0.905334,0.73046 -1.894531,0.73046 l -1.501953,0.0293 -1.626954,-0.0293 c -1.15605,0 -1.876076,-0.27931 -2.162109,-0.84179 -0.286033,-0.56249 -0.429687,-1.78132 -0.429687,-3.65625 v -9.81641 z m 99.142575,0 v 11.5039 c 0,2.28742 0.25706,3.9645 0.76953,5.03321 0.51248,1.06871 1.18527,1.73361 2.01954,1.99609 0.83426,0.26249 2.03814,0.39454 3.61133,0.39454 l 2.96679,0.0273 c 2.02607,0 3.52292,-0.45824 4.48828,-1.37695 0.97728,-0.93747 1.46484,-2.86809 1.46484,-5.79297 v -1.09766 -10.6875 h -3.64648 v 9.92774 0.70312 c 0,1.4812 -0.1417,2.46565 -0.42773,2.95313 -0.27412,0.48747 -0.90729,0.73046 -1.89649,0.73046 l -1.50195,0.0293 -1.625,-0.0293 c -1.15605,0 -1.87803,-0.27931 -2.16406,-0.84179 -0.28604,-0.56249 -0.42969,-1.78132 -0.42969,-3.65625 v -9.81641 z m -10.98242,4.02149 2.55469,7.42578 h -5.11133 z m 54.08203,0.36523 c 0.45289,0 0.87428,0.0469 1.26758,0.14063 0.40522,0.0937 0.70951,0.2918 0.91211,0.5918 0.2026,0.28123 0.33494,0.73087 0.39453,1.3496 0.0715,0.59998 0.10547,1.33089 0.10547,2.19336 l -0.0352,2.53125 c 0,1.36869 -0.22681,2.23165 -0.67969,2.58789 -0.44097,0.33748 -1.17232,0.50586 -2.19727,0.50586 l -1.85938,0.0273 -1.94921,-0.0547 c -1.01303,0 -1.64992,-0.30041 -1.91211,-0.90038 -0.25028,-0.59998 -0.37695,-1.76335 -0.37695,-3.48828 v -0.75782 -0.50781 c 0,-0.56248 0.0302,-1.26566 0.0898,-2.10938 0.0715,-0.86247 0.32291,-1.42501 0.75196,-1.6875 0.42905,-0.26248 1.05461,-0.39257 1.87695,-0.39257 z m 41.97071,0 c 0.45288,0 0.87623,0.0469 1.26953,0.14063 0.40521,0.0937 0.70949,0.2918 0.91211,0.5918 0.2026,0.28123 0.33298,0.73087 0.39257,1.3496 0.0715,0.59998 0.10742,1.33089 0.10742,2.19336 l -0.0351,2.53125 c 0,1.36869 -0.2268,2.23165 -0.67969,2.58789 -0.44096,0.33748 -1.17427,0.50586 -2.19922,0.50586 l -1.85937,0.0273 -1.94727,-0.0547 c -1.01303,0 -1.65186,-0.30041 -1.91406,-0.90038 -0.25028,-0.59998 -0.375,-1.76335 -0.375,-3.48828 v -0.75782 -0.50781 c 0,-0.56248 0.0302,-1.26566 0.0898,-2.10938 0.0715,-0.86247 0.32095,-1.42501 0.75,-1.6875 0.42906,-0.26248 1.05461,-0.39257 1.87696,-0.39257 z m -198.486332,0.14063 h 5.757812 0.285156 c 0.214525,0 0.399753,0.0105 0.554688,0.0293 0.154934,0.0187 0.351483,0.0848 0.589843,0.19725 0.25028,0.1125 0.410914,0.31721 0.482423,0.61719 0.08342,0.3 0.125,0.76019 0.125,1.3789 0,1.10622 -0.102082,1.81799 -0.304688,2.13673 -0.202607,0.31874 -0.714764,0.47852 -1.53711,0.47852 h -0.464843 -5.488281 z m 8.013672,26.02148 c -0.299647,0 -0.88775,0.0196 -1.761719,0.0586 -0.865646,0.039 -1.568347,0.16787 -2.109375,0.38867 -0.532706,0.20782 -0.903241,0.61151 -1.111328,1.20899 -0.199765,0.59748 -0.298828,1.43366 -0.298828,2.51172 0,1.27289 0.156362,2.22224 0.472656,2.8457 0.324617,0.61046 0.879698,0.91602 1.662109,0.91602 l 4.169922,0.13477 h 0.41211 c 0.457792,0 0.765681,0.10468 0.923827,0.3125 0.16647,0.2078 0.250001,0.48719 0.250001,0.83789 0,0.38966 -0.07139,0.67557 -0.212891,0.85741 -0.1415,0.18185 -0.445993,0.27344 -0.91211,0.27344 l -1.697265,0.0762 -1.199219,-0.0195 c -0.407852,0 -0.727879,-0.0635 -0.960937,-0.19337 -0.224735,-0.14288 -0.337891,-0.48113 -0.337891,-1.01366 l -0.01172,-0.21485 h -2.496094 v 0.77929 c 0,1.37681 0.21222,2.29345 0.636719,2.74805 0.424499,0.45461 1.085435,0.68164 1.984375,0.68164 l 1.697266,0.0586 3.246094,-0.13673 c 1.007144,0 1.727333,-0.28592 2.160156,-0.85741 0.441146,-0.57151 0.662109,-1.62359 0.662109,-3.15625 0,-1.58463 -0.24524,-2.63671 -0.736328,-3.15625 -0.482764,-0.53254 -1.262204,-0.79883 -2.335938,-0.79883 l -1.671874,-0.0195 -1.697266,-0.0391 h -0.263672 c -0.366235,0 -0.656636,-0.07 -0.873047,-0.21288 -0.208088,-0.15587 -0.3125,-0.47451 -0.3125,-0.95509 0,-0.35069 0.08693,-0.59736 0.261719,-0.74023 0.183118,-0.15587 0.40408,-0.23437 0.662109,-0.23437 l 1.935547,-0.0977 1.222657,0.0195 c 0.307969,0 0.54642,0.0916 0.71289,0.27344 0.174794,0.18184 0.261719,0.49852 0.261719,0.95312 h 2.484374 c 0,-0.66242 -0.02428,-1.18192 -0.07422,-1.55859 -0.04994,-0.37667 -0.166492,-0.79803 -0.349609,-1.26563 -0.174794,-0.46759 -0.479287,-0.78623 -0.91211,-0.95507 -0.432822,-0.18185 -1.003438,-0.27149 -1.710937,-0.27149 z m 29.039062,0 -1.798828,0.0586 c -1.623085,0 -2.651162,0.40827 -3.083985,1.22657 -0.432822,0.80529 -0.648437,2.52736 -0.648437,5.16405 l 0.02539,2.39454 c 0,1.51968 0.260776,2.6241 0.785157,3.3125 0.524381,0.67541 1.270801,1.01367 2.236328,1.01367 l 1.722656,0.0977 0.798828,-0.0195 1.910157,-0.0586 c 1.756261,0 2.85038,-0.45407 3.283203,-1.36328 0.432822,-0.92219 0.65039,-2.7339 0.65039,-5.43554 v -0.625 c 0,-2.299 -0.274866,-3.83134 -0.824219,-4.59767 -0.541028,-0.76633 -1.55357,-1.14843 -3.035156,-1.14843 z m 133.662108,0 -1.79883,0.0586 c -1.62308,0 -2.65116,0.40827 -3.08399,1.22657 -0.43281,0.80529 -0.64843,2.52736 -0.64843,5.16405 l 0.0234,2.39454 c 0,1.51968 0.26273,2.6241 0.7871,3.3125 0.52439,0.67541 1.26886,1.01367 2.23438,1.01367 l 1.72461,0.0977 0.79883,-0.0195 1.91015,-0.0586 c 1.75627,0 2.85039,-0.45407 3.28321,-1.36328 0.43282,-0.92219 0.64844,-2.7339 0.64844,-5.43554 v -0.625 c 0,-2.299 -0.27487,-3.83134 -0.82422,-4.59767 -0.54103,-0.76633 -1.55162,-1.14843 -3.03321,-1.14843 z m 59.58985,0 c -0.29965,0 -0.88776,0.0196 -1.76173,0.0586 -0.86564,0.039 -1.56834,0.16787 -2.10937,0.38867 -0.5327,0.20782 -0.90324,0.61151 -1.11133,1.20899 -0.19977,0.59748 -0.29883,1.43366 -0.29883,2.51172 0,1.27289 0.15637,2.22224 0.47266,2.8457 0.32461,0.61046 0.8797,0.91602 1.66211,0.91602 l 4.16992,0.13477 h 0.41211 c 0.4578,0 0.76568,0.10468 0.92383,0.3125 0.16647,0.2078 0.25,0.48719 0.25,0.83789 0,0.38966 -0.0714,0.67557 -0.2129,0.85741 -0.14149,0.18185 -0.44599,0.27344 -0.9121,0.27344 l -1.69727,0.0762 -1.19922,-0.0195 c -0.40785,0 -0.72787,-0.0635 -0.96093,-0.19337 -0.22473,-0.14288 -0.33789,-0.48113 -0.33789,-1.01366 l -0.0117,-0.21485 h -2.4961 v 0.77929 c 0,1.37681 0.21222,2.29345 0.63672,2.74805 0.4245,0.45461 1.08544,0.68164 1.98438,0.68164 l 1.69727,0.0586 3.24609,-0.13673 c 1.00714,0 1.72733,-0.28592 2.16015,-0.85741 0.44115,-0.57151 0.66211,-1.62359 0.66211,-3.15625 0,-1.58463 -0.24524,-2.63671 -0.73633,-3.15625 -0.48276,-0.53254 -1.26025,-0.79883 -2.33398,-0.79883 l -1.67383,-0.0195 -1.69726,-0.0391 h -0.26368 c -0.36623,0 -0.65663,-0.07 -0.87304,-0.21288 -0.20809,-0.15587 -0.3125,-0.47451 -0.3125,-0.95509 0,-0.35069 0.0869,-0.59736 0.26171,-0.74023 0.18312,-0.15587 0.40409,-0.23437 0.66212,-0.23437 l 1.93555,-0.0977 1.22265,0.0195 c 0.30797,0 0.54642,0.0916 0.71289,0.27344 0.1748,0.18184 0.26172,0.49852 0.26172,0.95312 h 2.48437 c 0,-0.66242 -0.0243,-1.18192 -0.0742,-1.55859 -0.0499,-0.37667 -0.16648,-0.79803 -0.3496,-1.26563 -0.1748,-0.46759 -0.4793,-0.78623 -0.91211,-0.95507 -0.43283,-0.18185 -1.00344,-0.27149 -1.71094,-0.27149 z m -168.869147,0.13672 v 12.99413 h 8.289056 v -3.2539 h -5.755854 v -9.74023 z m 54.806637,0 v 3.25195 h 3.72071 v 9.74218 h 2.53515 v -9.74218 h 3.70899 v -3.25195 z m 27.89259,0 v 12.99413 h 2.5332 v -12.99413 z m 50.94921,0 v 12.99413 h 2.38477 v -9.76171 l 5.01952,9.76171 h 4.03321 v -12.99413 h -2.38477 v 9.74023 l -5.01953,-9.74023 z m -107.45703,0.0176 v 7.96874 c 0,1.58462 0.1792,2.74793 0.53711,3.48828 0.35791,0.74036 0.82947,1.20097 1.41211,1.38282 0.58264,0.18184 1.42278,0.27344 2.52148,0.27344 l 2.07227,0.0195 c 1.415,0 2.46056,-0.31863 3.13477,-0.95507 0.68252,-0.64944 1.02343,-1.98745 1.02343,-4.01368 v -0.75977 -7.40429 h -2.54687 v 6.8789 0.48633 c 0,1.0261 -0.10102,1.70918 -0.30078,2.04687 -0.19145,0.33771 -0.63142,0.50586 -1.32227,0.50586 l -1.04883,0.0195 -1.13672,-0.0195 c -0.80738,0 -1.31,-0.19432 -1.50976,-0.58398 -0.19977,-0.38965 -0.30078,-1.23434 -0.30078,-2.53321 v -6.80077 z m -49.126952,3.04101 c 0.316293,0 0.612043,0.0327 0.886718,0.0977 0.283,0.0649 0.495219,0.20038 0.636719,0.4082 0.1415,0.19483 0.233773,0.50692 0.27539,0.93555 0.04994,0.41563 0.07422,0.92205 0.07422,1.51953 l -0.02539,1.75391 c 0,0.94817 -0.156363,1.54423 -0.472656,1.79101 -0.30797,0.2338 -0.821288,0.35156 -1.537109,0.35156 l -1.298829,0.0195 -1.359375,-0.0391 c -0.707499,0 -1.15282,-0.2074 -1.335937,-0.62304 -0.174794,-0.41564 -0.263672,-1.22107 -0.263672,-2.41602 v -0.52734 -0.34962 c 0,-0.38966 0.02088,-0.87644 0.0625,-1.46093 0.04994,-0.59748 0.225745,-0.98808 0.525391,-1.16993 0.299647,-0.18184 0.736225,-0.27148 1.310547,-0.27148 z m 133.662112,0 c 0.31629,0 0.61204,0.0327 0.88671,0.0977 0.28301,0.0649 0.49523,0.20038 0.63672,0.4082 0.1415,0.19483 0.23378,0.50692 0.2754,0.93555 0.0499,0.41563 0.0742,0.92205 0.0742,1.51953 l -0.0254,1.75391 c 0,0.94817 -0.15831,1.54423 -0.47461,1.79101 -0.30797,0.2338 -0.81933,0.35156 -1.53515,0.35156 l -1.29883,0.0195 -1.36133,-0.0391 c -0.7075,0 -1.15282,-0.2074 -1.33594,-0.62304 -0.17479,-0.41564 -0.26172,-1.22107 -0.26172,-2.41602 v -0.52734 -0.34962 c 0,-0.38966 0.0209,-0.87644 0.0625,-1.46093 0.0499,-0.59748 0.22574,-0.98808 0.52539,-1.16993 0.29965,-0.18184 0.73623,-0.27148 1.31056,-0.27148 z" /><text
       xml:space="preserve"
       id="text1"
       style="font-weight:bold;font-size:32.3678px;font-family:'Eurostile Extended';-inkscape-font-specification:'Eurostile Extended, Bold';letter-spacing:3.65px;writing-mode:lr-tb;direction:ltr;white-space:pre;shape-inside:url(#rect2);display:inline;fill:#515151;fill-opacity:1;stroke:#5e5e5e;stroke-width:0;stroke-linecap:round;stroke-linejoin:round;stroke-opacity:1;paint-order:fill markers stroke" /></g><path
     id="path7-5-1-2"
     style="fill:#03045e;fill-opacity:1;stroke:url(#radialGradient3);stroke-width:3.41956;stroke-linecap:round;stroke-linejoin:round;stroke-dasharray:none;paint-order:fill markers stroke"
     d="m 152.63402,64.89304 v 0.06511 H 95.916475 c 0,0 -28.6473,4.880234 -28.20163,26.733279 0.44565,21.853051 33.423885,36.493061 33.423885,36.493061 0,0 20.00144,11.96486 51.39202,12.70317 v 0.0921 c 29.29703,-0.6376 47.96812,-12.75259 47.96812,-12.75259 0,0 30.53486,-14.66513 30.94748,-36.555914 0.41264,-21.890783 -26.11136,-26.778182 -26.11136,-26.778182 z" /><path
     id="text7-8-7-8"
     style="font-weight:bold;font-size:49.6773px;font-family:'Eurostile Extended';-inkscape-font-specification:'Eurostile Extended, Bold';letter-spacing:-7.33px;white-space:pre;inline-size:130.857;fill:#ffffff;stroke:#ffffff;stroke-width:0;stroke-linecap:round;stroke-linejoin:round;paint-order:fill markers stroke"
     d="m 192.1605,76.426991 c -0.11081,0 -0.52006,0.01682 -0.65109,0.01797 h -0.24472 v 0.0068 c -1.26621,0.01432 -2.9951,0.05451 -5.94747,0.163898 -3.3647,0.125868 -6.09868,0.546299 -8.20163,1.259542 -2.07058,0.671292 -3.51089,1.972157 -4.3197,3.902112 -0.77648,1.929946 -1.16524,4.636237 -1.16524,8.118547 0,4.11163 0.61611,7.17338 1.84553,9.187248 1.26177,1.971902 3.4137,2.956902 6.45487,2.956902 l 16.20791,0.44229 h 1.6008 c 1.77942,0 2.97757,0.33456 3.59229,1.00584 0.64705,0.6713 0.96991,1.57264 0.96991,2.70544 0,1.25865 -0.27397,2.18317 -0.82399,2.77054 -0.54999,0.58738 -1.73112,0.88011 -3.54287,0.88011 l -3.00628,0.11449 H 174.4416 v 8.79659 h 21.40773 l 5.43332,0.0247 c 3.91471,0 6.7146,-0.92224 8.39695,-2.7683 1.7147,-1.84604 2.57072,-5.24459 2.57072,-10.19533 0,-5.11858 -0.95377,-8.517106 -2.8626,-10.195338 -1.87648,-1.720174 -4.90146,-2.579705 -9.07499,-2.579705 l -6.50426,-0.06287 -6.59857,-0.125729 h -1.01931 c -1.42353,0 -2.55576,-0.230011 -3.39695,-0.691513 -0.80881,-0.503466 -1.21238,-1.532513 -1.21238,-3.084869 0,-1.132796 0.33765,-1.929596 1.01705,-2.391108 0.71177,-0.503468 1.57002,-0.754379 2.57297,-0.754379 l 6.09341,-0.255949 v 0.0023 h 18.77638 v -9.232163 h -16.14504 c -0.56016,-0.0082 -1.13861,-0.01364 -1.73553,-0.01797 z M 90.106155,76.867044 v 10.509657 h 14.032335 l -0.14369,31.466119 h 11.57611 l -0.28738,-31.394274 13.54962,-0.07184 V 76.867045 Z m 52.579715,0 -18.05344,41.975776 h 10.96767 l 3.20387,-7.61338 H 159.72 l 3.05793,7.61338 h 10.87113 L 155.98403,76.867044 Z m 6.50426,9.063765 6.93984,16.614291 H 142.2503 Z" /></svg>
